<?xml version="1.0" standalone="no"?><!DOCTYPE svg PUBLIC "-//W3C//DTD SVG 1.1//EN" "http://www.w3.org/Graphics/SVG/1.1/DTD/svg11.dtd"><svg t="1590032324202" class="icon" viewBox="0 0 1024 1024" version="1.1" xmlns="http://www.w3.org/2000/svg" p-id="15207" xmlns:xlink="http://www.w3.org/1999/xlink" width="81" height="81"><defs><style type="text/css"></style></defs><path d="M540.98944 511.766528l369.568768-369.568768c7.99744-7.998464 7.99744-20.965376 0-28.962816-7.998464-7.998464-20.9664-7.998464-28.96384 0L512.026624 482.802688 142.488576 113.266688c-7.998464-7.998464-20.965376-7.998464-28.962816 0s-7.998464 20.965376 0 28.962816l369.536 369.536L113.55648 881.272832c-7.998464 7.998464-7.998464 20.9664 0 28.96384 3.99872 3.99872 9.239552 5.997568 14.481408 5.997568s10.482688-1.998848 14.481408-5.997568l369.507328-369.507328 369.539072 369.539072c3.99872 3.99872 9.240576 5.997568 14.482432 5.997568s10.482688-1.998848 14.482432-5.997568c7.99744-7.998464 7.99744-20.9664 0-28.96384L540.98944 511.766528z" p-id="15208" fill="#ffffff"></path></svg>